<mxfile host="65bd71144e">
    <diagram id="SVyeF9OGRZavMR7upyHI" name="Page-1">
        <mxGraphModel dx="1181" dy="456" grid="1" gridSize="10" guides="1" tooltips="1" connect="1" arrows="1" fold="1" page="1" pageScale="1" pageWidth="850" pageHeight="1100" math="0" shadow="0">
            <root>
                <mxCell id="0"/>
                <mxCell id="1" parent="0"/>
                <mxCell id="2" value="&lt;div style=&quot;background-color: rgb(39 , 40 , 34) ; font-family: &amp;#34;menlo&amp;#34; , &amp;#34;monaco&amp;#34; , &amp;#34;courier new&amp;#34; , monospace ; font-weight: normal ; font-size: 12px ; line-height: 18px&quot;&gt;&lt;br&gt;&lt;div style=&quot;color: rgb(248 , 248 , 242)&quot;&gt;&lt;span style=&quot;color: #66d9ef ; font-style: italic&quot;&gt;const&lt;/span&gt;&lt;span style=&quot;color: #f8f8f2&quot;&gt; &lt;/span&gt;&lt;span style=&quot;color: #a6e22e&quot;&gt;maxSubArray&lt;/span&gt;&lt;span style=&quot;color: #f8f8f2&quot;&gt; &lt;/span&gt;&lt;span style=&quot;color: #f92672&quot;&gt;=&lt;/span&gt;&lt;span style=&quot;color: #f8f8f2&quot;&gt; (&lt;/span&gt;&lt;span style=&quot;color: #fd971f ; font-style: italic&quot;&gt;nums&lt;/span&gt;&lt;span style=&quot;color: #f8f8f2&quot;&gt;) &lt;/span&gt;&lt;span style=&quot;color: #66d9ef ; font-style: italic&quot;&gt;=&amp;gt;&lt;/span&gt;&lt;span style=&quot;color: #f8f8f2&quot;&gt; {&lt;/span&gt;&lt;/div&gt;&lt;div style=&quot;color: rgb(248 , 248 , 242)&quot;&gt;&lt;span style=&quot;color: #f8f8f2&quot;&gt;&lt;/span&gt;&lt;span style=&quot;color: #66d9ef ; font-style: italic&quot;&gt;&amp;nbsp; let&lt;/span&gt;&lt;span style=&quot;color: #f8f8f2&quot;&gt; &lt;/span&gt;&lt;span style=&quot;color: #f8f8f2&quot;&gt;solution&lt;/span&gt;&lt;span style=&quot;color: #f8f8f2&quot;&gt; &lt;/span&gt;&lt;span style=&quot;color: #f92672&quot;&gt;=&lt;/span&gt;&lt;span style=&quot;color: #f8f8f2&quot;&gt; &lt;/span&gt;&lt;span style=&quot;color: #fd971f ; font-style: italic&quot;&gt;nums&lt;/span&gt;&lt;span style=&quot;color: #f8f8f2&quot;&gt;[&lt;/span&gt;&lt;span style=&quot;color: #ae81ff&quot;&gt;0&lt;/span&gt;&lt;span style=&quot;color: #f8f8f2&quot;&gt;];&lt;/span&gt;&lt;/div&gt;&lt;br&gt;&lt;div style=&quot;color: rgb(248 , 248 , 242)&quot;&gt;&lt;span style=&quot;color: #f8f8f2&quot;&gt;&lt;/span&gt;&lt;span style=&quot;color: #f92672&quot;&gt;&amp;nbsp; for&lt;/span&gt;&lt;span style=&quot;color: #f8f8f2&quot;&gt; (&lt;/span&gt;&lt;span style=&quot;color: #66d9ef ; font-style: italic&quot;&gt;let&lt;/span&gt;&lt;span style=&quot;color: #f8f8f2&quot;&gt; &lt;/span&gt;&lt;span style=&quot;color: #f8f8f2&quot;&gt;i&lt;/span&gt;&lt;span style=&quot;color: #f8f8f2&quot;&gt; &lt;/span&gt;&lt;span style=&quot;color: #f92672&quot;&gt;=&lt;/span&gt;&lt;span style=&quot;color: #f8f8f2&quot;&gt; &lt;/span&gt;&lt;span style=&quot;color: #ae81ff&quot;&gt;1&lt;/span&gt;&lt;span style=&quot;color: #f8f8f2&quot;&gt;; &lt;/span&gt;&lt;span style=&quot;color: #f8f8f2&quot;&gt;i&lt;/span&gt;&lt;span style=&quot;color: #f8f8f2&quot;&gt; &lt;/span&gt;&lt;span style=&quot;color: #f92672&quot;&gt;&amp;lt;&lt;/span&gt;&lt;span style=&quot;color: #f8f8f2&quot;&gt; &lt;/span&gt;&lt;span style=&quot;color: #fd971f ; font-style: italic&quot;&gt;nums&lt;/span&gt;&lt;span style=&quot;color: #f8f8f2&quot;&gt;.length; &lt;/span&gt;&lt;span style=&quot;color: #f8f8f2&quot;&gt;i&lt;/span&gt;&lt;span style=&quot;color: #f92672&quot;&gt;++&lt;/span&gt;&lt;span style=&quot;color: #f8f8f2&quot;&gt;) {&lt;/span&gt;&lt;/div&gt;&lt;div style=&quot;color: rgb(248 , 248 , 242)&quot;&gt;&lt;br&gt;&lt;/div&gt;&lt;div style=&quot;color: rgb(248 , 248 , 242)&quot;&gt;&lt;span style=&quot;color: #f8f8f2&quot;&gt;&lt;/span&gt;&lt;span style=&quot;color: #f8f8f2&quot;&gt;&amp;nbsp; &amp;nbsp; console&lt;/span&gt;&lt;span style=&quot;color: #f8f8f2&quot;&gt;.&lt;/span&gt;&lt;span style=&quot;color: #a6e22e&quot;&gt;log&lt;/span&gt;&lt;span style=&quot;color: #f8f8f2&quot;&gt;(&lt;/span&gt;&lt;span style=&quot;color: #e6db74&quot;&gt;&quot;nums[i]: &quot;&lt;/span&gt;&lt;span style=&quot;color: #f8f8f2&quot;&gt;, &lt;/span&gt;&lt;span style=&quot;color: #fd971f ; font-style: italic&quot;&gt;nums&lt;/span&gt;&lt;span style=&quot;color: #f8f8f2&quot;&gt;[&lt;/span&gt;&lt;span style=&quot;color: #f8f8f2&quot;&gt;i&lt;/span&gt;&lt;span style=&quot;color: #f8f8f2&quot;&gt;]);&lt;/span&gt;&lt;/div&gt;&lt;div style=&quot;color: rgb(248 , 248 , 242)&quot;&gt;&lt;span style=&quot;color: #f8f8f2&quot;&gt;&lt;/span&gt;&lt;span style=&quot;color: #fd971f ; font-style: italic&quot;&gt;&amp;nbsp; &amp;nbsp; nums&lt;/span&gt;&lt;span style=&quot;color: #f8f8f2&quot;&gt;[&lt;/span&gt;&lt;span style=&quot;color: #f8f8f2&quot;&gt;i&lt;/span&gt;&lt;span style=&quot;color: #f8f8f2&quot;&gt;] &lt;/span&gt;&lt;span style=&quot;color: #f92672&quot;&gt;=&lt;/span&gt;&lt;span style=&quot;color: #f8f8f2&quot;&gt; &lt;/span&gt;&lt;span style=&quot;color: #f8f8f2&quot;&gt;Math&lt;/span&gt;&lt;span style=&quot;color: #f8f8f2&quot;&gt;.&lt;/span&gt;&lt;span style=&quot;color: #a6e22e&quot;&gt;max&lt;/span&gt;&lt;span style=&quot;color: #f8f8f2&quot;&gt;(&lt;/span&gt;&lt;span style=&quot;color: #fd971f ; font-style: italic&quot;&gt;nums&lt;/span&gt;&lt;span style=&quot;color: #f8f8f2&quot;&gt;[&lt;/span&gt;&lt;span style=&quot;color: #f8f8f2&quot;&gt;i&lt;/span&gt;&lt;span style=&quot;color: #f8f8f2&quot;&gt;], &lt;/span&gt;&lt;span style=&quot;color: #fd971f ; font-style: italic&quot;&gt;nums&lt;/span&gt;&lt;span style=&quot;color: #f8f8f2&quot;&gt;[&lt;/span&gt;&lt;span style=&quot;color: #f8f8f2&quot;&gt;i&lt;/span&gt;&lt;span style=&quot;color: #f8f8f2&quot;&gt;] &lt;/span&gt;&lt;span style=&quot;color: #f92672&quot;&gt;+&lt;/span&gt;&lt;span style=&quot;color: #f8f8f2&quot;&gt; &lt;/span&gt;&lt;span style=&quot;color: #fd971f ; font-style: italic&quot;&gt;nums&lt;/span&gt;&lt;span style=&quot;color: #f8f8f2&quot;&gt;[&lt;/span&gt;&lt;span style=&quot;color: #f8f8f2&quot;&gt;i&lt;/span&gt;&lt;span style=&quot;color: #f92672&quot;&gt;-&lt;/span&gt;&lt;span style=&quot;color: #ae81ff&quot;&gt;1&lt;/span&gt;&lt;span style=&quot;color: #f8f8f2&quot;&gt;]); &lt;/span&gt;&lt;/div&gt;&lt;div style=&quot;color: rgb(248 , 248 , 242)&quot;&gt;&lt;span style=&quot;color: #f8f8f2&quot;&gt;&lt;/span&gt;&lt;span style=&quot;color: #f8f8f2&quot;&gt;&amp;nbsp; &amp;nbsp; console&lt;/span&gt;&lt;span style=&quot;color: #f8f8f2&quot;&gt;.&lt;/span&gt;&lt;span style=&quot;color: #a6e22e&quot;&gt;log&lt;/span&gt;&lt;span style=&quot;color: #f8f8f2&quot;&gt;(&lt;/span&gt;&lt;span style=&quot;color: #e6db74&quot;&gt;&quot;nums[i]: &quot;&lt;/span&gt;&lt;span style=&quot;color: #f8f8f2&quot;&gt;, &lt;/span&gt;&lt;span style=&quot;color: #fd971f ; font-style: italic&quot;&gt;nums&lt;/span&gt;&lt;span style=&quot;color: #f8f8f2&quot;&gt;[&lt;/span&gt;&lt;span style=&quot;color: #f8f8f2&quot;&gt;i&lt;/span&gt;&lt;span style=&quot;color: #f8f8f2&quot;&gt;]);&lt;/span&gt;&lt;/div&gt;&lt;div style=&quot;color: rgb(248 , 248 , 242)&quot;&gt;&lt;br&gt;&lt;/div&gt;&lt;div&gt;&lt;font color=&quot;#88846f&quot;&gt;&amp;nbsp; &amp;nbsp;&amp;nbsp;&lt;/font&gt;&lt;font color=&quot;#f8f8f2&quot;&gt;console.&lt;/font&gt;&lt;span style=&quot;color: rgb(166 , 226 , 46)&quot;&gt;log&lt;/span&gt;&lt;font color=&quot;#f8f8f2&quot;&gt;(&lt;/font&gt;&lt;span style=&quot;color: rgb(230 , 219 , 116)&quot;&gt;&quot;solution &quot;&lt;/span&gt;&lt;font color=&quot;#f8f8f2&quot;&gt;, solution);&lt;/font&gt;&lt;br&gt;&lt;/div&gt;&lt;div style=&quot;color: rgb(248 , 248 , 242)&quot;&gt;&lt;span style=&quot;color: #f8f8f2&quot;&gt;&lt;/span&gt;&lt;span style=&quot;color: #f8f8f2&quot;&gt;&amp;nbsp; &amp;nbsp; solution&lt;/span&gt;&lt;span style=&quot;color: #f8f8f2&quot;&gt; &lt;/span&gt;&lt;span style=&quot;color: #f92672&quot;&gt;=&lt;/span&gt;&lt;span style=&quot;color: #f8f8f2&quot;&gt; &lt;/span&gt;&lt;span style=&quot;color: #f8f8f2&quot;&gt;Math&lt;/span&gt;&lt;span style=&quot;color: #f8f8f2&quot;&gt;.&lt;/span&gt;&lt;span style=&quot;color: #a6e22e&quot;&gt;max&lt;/span&gt;&lt;span style=&quot;color: #f8f8f2&quot;&gt;(&lt;/span&gt;&lt;span style=&quot;color: #f8f8f2&quot;&gt;solution&lt;/span&gt;&lt;span style=&quot;color: #f8f8f2&quot;&gt;, &lt;/span&gt;&lt;span style=&quot;color: #fd971f ; font-style: italic&quot;&gt;nums&lt;/span&gt;&lt;span style=&quot;color: #f8f8f2&quot;&gt;[&lt;/span&gt;&lt;span style=&quot;color: #f8f8f2&quot;&gt;i&lt;/span&gt;&lt;span style=&quot;color: #f8f8f2&quot;&gt;]);&lt;/span&gt;&lt;/div&gt;&lt;div style=&quot;color: rgb(248 , 248 , 242)&quot;&gt;&lt;span style=&quot;color: #f8f8f2&quot;&gt;&lt;/span&gt;&lt;span style=&quot;color: #f8f8f2&quot;&gt;&amp;nbsp; &amp;nbsp; console&lt;/span&gt;&lt;span style=&quot;color: #f8f8f2&quot;&gt;.&lt;/span&gt;&lt;span style=&quot;color: #a6e22e&quot;&gt;log&lt;/span&gt;&lt;span style=&quot;color: #f8f8f2&quot;&gt;(&lt;/span&gt;&lt;span style=&quot;color: #e6db74&quot;&gt;&quot;solution &quot;&lt;/span&gt;&lt;span style=&quot;color: #f8f8f2&quot;&gt;, &lt;/span&gt;&lt;span style=&quot;color: #f8f8f2&quot;&gt;solution&lt;/span&gt;&lt;span style=&quot;color: #f8f8f2&quot;&gt;);&lt;/span&gt;&lt;/div&gt;&lt;div style=&quot;color: rgb(248 , 248 , 242)&quot;&gt;&lt;span style=&quot;color: #f8f8f2&quot;&gt;&amp;nbsp; }&lt;/span&gt;&lt;/div&gt;&lt;div style=&quot;color: rgb(248 , 248 , 242)&quot;&gt;&lt;span style=&quot;color: #f8f8f2&quot;&gt;&lt;/span&gt;&lt;span style=&quot;color: #f92672&quot;&gt;&amp;nbsp; return&lt;/span&gt;&lt;span style=&quot;color: #f8f8f2&quot;&gt; &lt;/span&gt;&lt;span style=&quot;color: #f8f8f2&quot;&gt;solution&lt;/span&gt;&lt;span style=&quot;color: #f8f8f2&quot;&gt;;&lt;/span&gt;&lt;/div&gt;&lt;div style=&quot;color: rgb(248 , 248 , 242)&quot;&gt;&lt;span style=&quot;color: #f8f8f2&quot;&gt;}&lt;/span&gt;&lt;/div&gt;&lt;br&gt;&lt;div style=&quot;color: rgb(248 , 248 , 242)&quot;&gt;&lt;span style=&quot;color: #a6e22e&quot;&gt;maxSubArray&lt;/span&gt;&lt;span style=&quot;color: #f8f8f2&quot;&gt;([&lt;/span&gt;&lt;span style=&quot;color: #ae81ff&quot;&gt;100&lt;/span&gt;&lt;span style=&quot;color: #f8f8f2&quot;&gt;, &lt;/span&gt;&lt;span style=&quot;color: #f92672&quot;&gt;-&lt;/span&gt;&lt;span style=&quot;color: #ae81ff&quot;&gt;2&lt;/span&gt;&lt;span style=&quot;color: #f8f8f2&quot;&gt;, &lt;/span&gt;&lt;span style=&quot;color: #ae81ff&quot;&gt;3&lt;/span&gt;&lt;span style=&quot;color: #f8f8f2&quot;&gt;, &lt;/span&gt;&lt;span style=&quot;color: #f92672&quot;&gt;-&lt;/span&gt;&lt;span style=&quot;color: #ae81ff&quot;&gt;3&lt;/span&gt;&lt;span style=&quot;color: #f8f8f2&quot;&gt;, &lt;/span&gt;&lt;span style=&quot;color: #ae81ff&quot;&gt;0&lt;/span&gt;&lt;span style=&quot;color: #f8f8f2&quot;&gt;, &lt;/span&gt;&lt;span style=&quot;color: #ae81ff&quot;&gt;9&lt;/span&gt;&lt;span style=&quot;color: #f8f8f2&quot;&gt;, &lt;/span&gt;&lt;span style=&quot;color: #f92672&quot;&gt;-&lt;/span&gt;&lt;span style=&quot;color: #ae81ff&quot;&gt;8&lt;/span&gt;&lt;span style=&quot;color: #f8f8f2&quot;&gt;, &lt;/span&gt;&lt;span style=&quot;color: #ae81ff&quot;&gt;2&lt;/span&gt;&lt;span style=&quot;color: #f8f8f2&quot;&gt;])&lt;/span&gt;&lt;/div&gt;&lt;/div&gt;" style="text;whiteSpace=wrap;html=1;" vertex="1" parent="1">
                    <mxGeometry x="10" y="220" width="390" height="430" as="geometry"/>
                </mxCell>
                <mxCell id="3" value="&lt;div style=&quot;background-color: rgb(39 , 40 , 34) ; font-family: &amp;#34;menlo&amp;#34; , &amp;#34;monaco&amp;#34; , &amp;#34;courier new&amp;#34; , monospace ; font-weight: normal ; font-size: 12px ; line-height: 18px&quot;&gt;&lt;div style=&quot;line-height: 18px&quot;&gt;i:&lt;span style=&quot;white-space: pre&quot;&gt;&#9;&lt;/span&gt;&amp;nbsp; &amp;nbsp;1&amp;nbsp; &amp;nbsp; 2&amp;nbsp; &amp;nbsp;3&amp;nbsp; &amp;nbsp;4&amp;nbsp; &amp;nbsp;5&amp;nbsp; &amp;nbsp;6&amp;nbsp; &amp;nbsp;7&amp;nbsp;&lt;br&gt;&lt;/div&gt;&lt;div style=&quot;line-height: 18px&quot;&gt;&lt;br&gt;&lt;/div&gt;&lt;div style=&quot;line-height: 18px&quot;&gt;&lt;span style=&quot;color: rgb(253 , 151 , 31) ; font-style: italic&quot;&gt;nums&lt;/span&gt;[i]:&amp;nbsp; -2&lt;span&gt;&amp;nbsp; &amp;nbsp;&amp;nbsp;&lt;/span&gt;3&lt;span&gt;&amp;nbsp;&amp;nbsp;&lt;/span&gt;-3&lt;span&gt;&amp;nbsp; &amp;nbsp;&lt;/span&gt;0&lt;span&gt;&amp;nbsp; &amp;nbsp;&lt;/span&gt;9&amp;nbsp;&lt;span&gt;&#9;&lt;/span&gt;-8&lt;span&gt;&amp;nbsp; &amp;nbsp;&lt;/span&gt;2&lt;span&gt;&#9;&lt;/span&gt;&lt;/div&gt;&lt;div style=&quot;line-height: 18px&quot;&gt;&lt;span style=&quot;white-space: pre&quot;&gt;&#9;&lt;/span&gt;&lt;br&gt;&lt;/div&gt;&lt;div style=&quot;line-height: 18px&quot;&gt;&lt;span style=&quot;color: rgb(253 , 151 , 31) ; font-style: italic&quot;&gt;nums&lt;/span&gt;[i]:&amp;nbsp; 98&lt;span&gt;&amp;nbsp;&amp;nbsp;&lt;/span&gt;101&lt;span&gt;&amp;nbsp;&amp;nbsp;&lt;/span&gt;98&lt;span&gt;&amp;nbsp;&amp;nbsp;&lt;/span&gt;98 107&lt;span&gt;&amp;nbsp;&amp;nbsp;&lt;/span&gt;99&lt;span&gt;&amp;nbsp;&lt;/span&gt;101&lt;span&gt;&#9;&lt;/span&gt;&lt;/div&gt;&lt;div style=&quot;line-height: 18px&quot;&gt;&lt;br&gt;&lt;/div&gt;&lt;div style=&quot;line-height: 18px&quot;&gt;solution&amp;nbsp; 100&lt;span&gt;&#9;&lt;/span&gt;100&lt;span&gt;&#9;&lt;/span&gt;101&lt;span&gt;&#9;&lt;/span&gt;101&lt;span&gt;&#9;&lt;/span&gt;101&lt;span&gt;&#9;&lt;/span&gt;107&lt;span&gt;&#9;&lt;/span&gt;107&lt;/div&gt;&lt;div style=&quot;line-height: 18px&quot;&gt;&lt;br&gt;&lt;/div&gt;&lt;div style=&quot;line-height: 18px&quot;&gt;solution&amp;nbsp; 100&lt;span&gt;&#9;&lt;/span&gt;101&lt;span&gt;&#9;&lt;/span&gt;101&lt;span&gt;&#9;&lt;/span&gt;101&lt;span&gt;&#9;&lt;/span&gt;107&lt;span&gt;&#9;&lt;/span&gt;107&lt;span&gt;&#9;&lt;/span&gt;107&lt;/div&gt;&lt;div style=&quot;line-height: 18px&quot;&gt;&lt;br&gt;&lt;/div&gt;&lt;/div&gt;" style="text;whiteSpace=wrap;html=1;" vertex="1" parent="1">
                    <mxGeometry x="420" y="290" width="290" height="250" as="geometry"/>
                </mxCell>
            </root>
        </mxGraphModel>
    </diagram>
</mxfile>